<svg xmlns="http://www.w3.org/2000/svg" xmlns:xlink="http://www.w3.org/1999/xlink" width="500" zoomAndPan="magnify" viewBox="0 0 375 374.999991" height="500" preserveAspectRatio="xMidYMid meet" version="1.0"><defs><g/><clipPath id="id1"><path d="M 90.128906 25 L 197 25 L 197 211 L 90.128906 211 Z M 90.128906 25 " clip-rule="nonzero"/></clipPath><clipPath id="id2"><path d="M 166 202 L 296 202 L 296 272.46875 L 166 272.46875 Z M 166 202 " clip-rule="nonzero"/></clipPath></defs><rect x="-37.5" width="450" fill="#ffffff" y="-37.499999" height="449.999989" fill-opacity="1"/><rect x="-37.5" width="450" fill="#ffffff" y="-37.499999" height="449.999989" fill-opacity="1"/><rect x="-37.5" width="450" fill="#ffffff" y="-37.499999" height="449.999989" fill-opacity="1"/><rect x="-37.5" width="450" fill="#ffffff" y="-37.499999" height="449.999989" fill-opacity="1"/><path fill="#ffffff" d="M 291.222656 60 L 270.6875 48.050781 L 279.652344 32.625 L 300.199219 44.570312 L 291.222656 60 " fill-opacity="1" fill-rule="nonzero"/><path fill="#231f1f" d="M 273.585938 47.28125 L 290.460938 57.097656 L 297.296875 45.339844 L 280.425781 35.523438 Z M 291.222656 62.117188 C 290.859375 62.117188 290.484375 62.027344 290.164062 61.832031 L 269.617188 49.886719 C 268.609375 49.292969 268.261719 47.992188 268.855469 46.984375 L 277.820312 31.558594 C 278.101562 31.070312 278.566406 30.71875 279.109375 30.574219 C 279.652344 30.429688 280.238281 30.507812 280.722656 30.792969 L 301.265625 42.738281 C 301.75 43.023438 302.097656 43.488281 302.25 44.03125 C 302.386719 44.574219 302.308594 45.152344 302.03125 45.636719 L 293.054688 61.066406 C 292.777344 61.550781 292.308594 61.90625 291.765625 62.050781 C 291.585938 62.09375 291.402344 62.117188 291.222656 62.117188 " fill-opacity="1" fill-rule="nonzero"/><path fill="#ffffff" d="M 305.839844 52.066406 L 271.210938 31.925781 L 279.085938 18.386719 L 313.71875 38.53125 L 305.839844 52.066406 " fill-opacity="1" fill-rule="nonzero"/><path fill="#231f1f" d="M 274.113281 31.160156 L 305.074219 49.171875 L 310.816406 39.300781 L 279.847656 21.285156 Z M 305.839844 54.195312 C 305.472656 54.195312 305.109375 54.101562 304.777344 53.90625 L 270.152344 33.761719 C 269.132812 33.171875 268.785156 31.871094 269.378906 30.859375 L 277.253906 17.324219 C 277.53125 16.835938 278 16.480469 278.542969 16.339844 C 279.085938 16.191406 279.660156 16.273438 280.152344 16.554688 L 314.78125 36.695312 C 315.261719 36.980469 315.621094 37.445312 315.761719 37.988281 C 315.90625 38.53125 315.832031 39.113281 315.550781 39.597656 L 307.671875 53.132812 C 307.28125 53.8125 306.566406 54.195312 305.839844 54.195312 " fill-opacity="1" fill-rule="nonzero"/><path fill="#ffffff" d="M 204.417969 49.230469 L 227.339844 42.96875 L 222.632812 25.753906 L 199.710938 32.019531 L 204.417969 49.230469 " fill-opacity="1" fill-rule="nonzero"/><path fill="#231f1f" d="M 202.316406 33.503906 L 205.902344 46.628906 L 224.734375 41.480469 L 221.148438 28.355469 Z M 204.410156 51.351562 C 203.484375 51.351562 202.628906 50.734375 202.367188 49.792969 L 197.667969 32.574219 C 197.515625 32.03125 197.589844 31.453125 197.871094 30.964844 C 198.152344 30.476562 198.609375 30.117188 199.152344 29.96875 L 222.070312 23.707031 C 223.199219 23.398438 224.371094 24.0625 224.675781 25.195312 L 229.382812 42.40625 C 229.535156 42.949219 229.460938 43.53125 229.179688 44.019531 C 228.898438 44.503906 228.441406 44.863281 227.898438 45.011719 L 204.96875 51.277344 C 204.792969 51.328125 204.597656 51.351562 204.410156 51.351562 " fill-opacity="1" fill-rule="nonzero"/><path fill="#ffffff" d="M 321.507812 117.511719 L 315.671875 94.476562 L 332.964844 90.089844 L 338.804688 113.125 L 321.507812 117.511719 " fill-opacity="1" fill-rule="nonzero"/><path fill="#231f1f" d="M 318.242188 96.011719 L 323.042969 114.933594 L 336.222656 111.589844 L 331.421875 92.671875 Z M 321.507812 119.632812 C 320.554688 119.632812 319.691406 118.996094 319.453125 118.039062 L 313.609375 94.996094 C 313.472656 94.453125 313.558594 93.875 313.847656 93.390625 C 314.136719 92.90625 314.601562 92.558594 315.144531 92.425781 L 332.441406 88.039062 C 333.578125 87.75 334.730469 88.4375 335.019531 89.574219 L 340.855469 112.609375 C 341 113.152344 340.914062 113.726562 340.625 114.210938 C 340.339844 114.695312 339.863281 115.042969 339.320312 115.1875 L 322.023438 119.574219 C 321.855469 119.617188 321.675781 119.632812 321.507812 119.632812 " fill-opacity="1" fill-rule="nonzero"/><path fill="#ffffff" d="M 192.332031 37.8125 L 230.96875 27.25 L 226.847656 12.140625 L 188.199219 22.703125 L 192.332031 37.8125 " fill-opacity="1" fill-rule="nonzero"/><path fill="#231f1f" d="M 190.804688 24.191406 L 193.816406 35.203125 L 228.367188 25.761719 L 225.355469 14.746094 Z M 192.332031 39.933594 C 191.398438 39.933594 190.542969 39.3125 190.285156 38.367188 L 186.15625 23.261719 C 186.003906 22.722656 186.078125 22.140625 186.359375 21.652344 C 186.640625 21.164062 187.097656 20.804688 187.640625 20.65625 L 226.289062 10.09375 C 226.832031 9.945312 227.40625 10.019531 227.898438 10.296875 C 228.382812 10.574219 228.738281 11.035156 228.890625 11.578125 L 233.015625 26.6875 C 233.328125 27.820312 232.660156 28.984375 231.53125 29.292969 L 192.890625 39.855469 C 192.703125 39.90625 192.519531 39.933594 192.332031 39.933594 " fill-opacity="1" fill-rule="nonzero"/><path fill="#231f1f" d="M 313.941406 166.007812 C 290.238281 206.65625 238.09375 220.382812 197.464844 196.6875 C 191.90625 193.445312 186.859375 189.6875 182.339844 185.480469 C 153.769531 158.957031 146.328125 115.28125 166.789062 80.199219 C 190.480469 39.558594 242.625 25.824219 283.257812 49.519531 C 317.765625 69.636719 332.875 110.285156 322.132812 146.96875 C 320.234375 153.484375 317.511719 159.882812 313.941406 166.007812 " fill-opacity="1" fill-rule="nonzero"/><path fill="#231f1f" d="M 240.445312 40.03125 C 210.96875 40.03125 183.449219 55.832031 168.621094 81.269531 C 149.203125 114.566406 155.585938 157.734375 183.78125 183.925781 C 188.242188 188.066406 193.195312 191.75 198.53125 194.855469 C 211.230469 202.261719 225.667969 206.179688 240.285156 206.179688 C 269.753906 206.179688 297.269531 190.375 312.109375 164.9375 C 315.519531 159.074219 318.214844 152.832031 320.105469 146.375 C 330.828125 109.699219 315.246094 70.621094 282.1875 51.351562 C 269.5 43.945312 255.0625 40.03125 240.445312 40.03125 Z M 240.285156 210.417969 C 224.921875 210.417969 209.738281 206.304688 196.394531 198.515625 C 190.796875 195.257812 185.578125 191.390625 180.898438 187.027344 C 166.601562 173.757812 157.078125 155.765625 154.089844 136.367188 C 151.046875 116.695312 154.90625 96.359375 164.957031 79.125 C 180.539062 52.394531 209.464844 35.785156 240.445312 35.785156 C 255.808594 35.785156 270.984375 39.898438 284.328125 47.683594 C 319.0625 67.9375 335.453125 109.007812 324.179688 147.566406 C 322.183594 154.347656 319.359375 160.914062 315.761719 167.074219 C 300.179688 193.808594 271.253906 210.417969 240.285156 210.417969 " fill-opacity="1" fill-rule="nonzero"/><path fill="#ffffff" d="M 302.667969 159.441406 C 282.605469 193.851562 238.445312 205.492188 204.027344 185.417969 C 199.328125 182.679688 195.054688 179.488281 191.230469 175.925781 C 167.035156 153.46875 160.734375 116.484375 178.054688 86.773438 C 198.117188 52.355469 242.285156 40.71875 276.691406 60.785156 C 305.914062 77.832031 318.699219 112.253906 309.613281 143.3125 C 308 148.828125 305.695312 154.25 302.667969 159.441406 " fill-opacity="1" fill-rule="nonzero"/><path fill="#ffffff" d="M 240.429688 53.074219 C 215.589844 53.074219 192.382812 66.394531 179.886719 87.835938 C 163.523438 115.910156 168.902344 152.296875 192.671875 174.371094 C 196.429688 177.867188 200.609375 180.964844 205.097656 183.585938 C 215.804688 189.832031 227.976562 193.132812 240.292969 193.132812 C 265.136719 193.132812 288.339844 179.8125 300.835938 158.371094 C 303.71875 153.425781 305.992188 148.164062 307.578125 142.71875 C 316.621094 111.800781 303.480469 78.867188 275.625 62.621094 C 264.917969 56.375 252.753906 53.074219 240.429688 53.074219 Z M 240.292969 197.375 C 227.230469 197.375 214.320312 193.871094 202.96875 187.253906 C 198.203125 184.476562 193.765625 181.1875 189.777344 177.476562 C 177.621094 166.195312 169.519531 150.890625 166.976562 134.386719 C 164.390625 117.648438 167.671875 100.355469 176.222656 85.695312 C 189.480469 62.960938 214.082031 48.832031 240.429688 48.832031 C 253.5 48.832031 266.410156 52.335938 277.761719 58.953125 C 307.304688 76.1875 321.242188 111.125 311.648438 143.914062 C 309.960938 149.683594 307.550781 155.265625 304.5 160.511719 C 291.238281 183.246094 266.640625 197.375 240.292969 197.375 " fill-opacity="1" fill-rule="nonzero"/><path fill="#ffffff" d="M 296.796875 156.011719 C 278.617188 187.191406 238.628906 197.722656 207.457031 179.546875 C 203.199219 177.0625 199.320312 174.167969 195.859375 170.945312 C 173.949219 150.601562 168.242188 117.105469 183.925781 90.191406 C 202.101562 59.023438 242.097656 48.484375 273.265625 66.65625 C 299.730469 82.089844 311.320312 113.269531 303.089844 141.410156 C 301.621094 146.410156 299.535156 151.3125 296.796875 156.011719 " fill-opacity="1" fill-rule="nonzero"/><path fill="#231f1f" d="M 240.429688 59.878906 C 217.992188 59.878906 197.046875 71.902344 185.757812 91.261719 C 170.980469 116.605469 175.839844 149.464844 197.300781 169.394531 C 200.695312 172.558594 204.46875 175.355469 208.523438 177.714844 C 218.195312 183.347656 229.179688 186.328125 240.300781 186.328125 C 262.730469 186.328125 283.683594 174.304688 294.964844 154.953125 C 297.566406 150.480469 299.613281 145.730469 301.054688 140.808594 C 309.214844 112.90625 297.355469 83.160156 272.195312 68.492188 C 262.535156 62.855469 251.550781 59.878906 240.429688 59.878906 Z M 240.300781 190.570312 C 228.425781 190.570312 216.703125 187.394531 206.386719 181.382812 C 202.070312 178.859375 198.039062 175.875 194.410156 172.507812 C 183.363281 162.25 176.011719 148.34375 173.695312 133.359375 C 171.34375 118.148438 174.332031 102.4375 182.09375 89.125 C 194.136719 68.464844 216.488281 55.636719 240.429688 55.636719 C 252.296875 55.636719 264.027344 58.820312 274.332031 64.824219 C 301.171875 80.488281 313.839844 112.21875 305.125 142.007812 C 303.589844 147.25 301.402344 152.324219 298.628906 157.082031 C 286.582031 177.742188 264.230469 190.570312 240.300781 190.570312 " fill-opacity="1" fill-rule="nonzero"/><path fill="#231f1f" d="M 273.808594 77.542969 C 272.628906 79.570312 270.03125 80.25 268.015625 79.078125 C 265.996094 77.890625 265.316406 75.304688 266.488281 73.285156 C 267.667969 71.257812 270.261719 70.578125 272.28125 71.757812 C 274.300781 72.9375 274.980469 75.53125 273.808594 77.542969 " fill-opacity="1" fill-rule="nonzero"/><path fill="#231f1f" d="M 297.269531 112.675781 C 295.007812 113.253906 292.699219 111.886719 292.121094 109.621094 C 291.546875 107.355469 292.910156 105.050781 295.175781 104.472656 C 297.449219 103.894531 299.75 105.261719 300.324219 107.527344 C 300.902344 109.792969 299.535156 112.097656 297.269531 112.675781 " fill-opacity="1" fill-rule="nonzero"/><path fill="#231f1f" d="M 288.703125 154.046875 C 286.703125 152.839844 286.066406 150.234375 287.269531 148.234375 C 288.484375 146.230469 291.085938 145.585938 293.082031 146.800781 C 295.082031 148.003906 295.726562 150.609375 294.523438 152.609375 C 293.308594 154.613281 290.707031 155.25 288.703125 154.046875 " fill-opacity="1" fill-rule="nonzero"/><path fill="#231f1f" d="M 253.230469 176.96875 C 252.6875 174.695312 254.085938 172.40625 256.359375 171.871094 C 258.632812 171.328125 260.921875 172.726562 261.457031 175 C 262 177.273438 260.601562 179.566406 258.328125 180.109375 C 256.054688 180.644531 253.761719 179.242188 253.230469 176.96875 " fill-opacity="1" fill-rule="nonzero"/><path fill="#231f1f" d="M 212.003906 167.765625 C 213.242188 165.777344 215.855469 165.175781 217.832031 166.414062 C 219.816406 167.660156 220.417969 170.265625 219.179688 172.253906 C 217.941406 174.238281 215.328125 174.839844 213.34375 173.601562 C 211.359375 172.363281 210.753906 169.75 212.003906 167.765625 " fill-opacity="1" fill-rule="nonzero"/><path fill="#231f1f" d="M 189.632812 131.925781 C 191.914062 131.417969 194.179688 132.859375 194.679688 135.140625 C 195.191406 137.425781 193.757812 139.691406 191.472656 140.191406 C 189.183594 140.699219 186.929688 139.265625 186.417969 136.984375 C 185.910156 134.691406 187.351562 132.4375 189.632812 131.925781 " fill-opacity="1" fill-rule="nonzero"/><path fill="#231f1f" d="M 199.472656 90.847656 C 201.433594 92.109375 202 94.730469 200.730469 96.691406 C 199.457031 98.660156 196.835938 99.21875 194.875 97.957031 C 192.90625 96.683594 192.347656 94.0625 193.621094 92.09375 C 194.882812 90.132812 197.503906 89.574219 199.472656 90.847656 " fill-opacity="1" fill-rule="nonzero"/><path fill="#231f1f" d="M 235.644531 69.023438 C 236.121094 71.316406 234.644531 73.554688 232.351562 74.03125 C 230.0625 74.496094 227.824219 73.03125 227.355469 70.738281 C 226.882812 68.449219 228.359375 66.207031 230.648438 65.734375 C 232.929688 65.257812 235.175781 66.734375 235.644531 69.023438 " fill-opacity="1" fill-rule="nonzero"/><path fill="#231f1f" d="M 245.636719 124.171875 C 244.433594 125.191406 242.617188 125.039062 241.597656 123.824219 C 240.582031 122.621094 240.734375 120.8125 241.945312 119.785156 L 279.617188 88.046875 C 280.832031 87.027344 282.636719 87.179688 283.65625 88.386719 C 284.675781 89.597656 284.523438 91.40625 283.316406 92.425781 L 245.636719 124.171875 " fill-opacity="1" fill-rule="nonzero"/><path fill="#231f1f" d="M 281.46875 89.488281 C 281.339844 89.488281 281.164062 89.523438 280.984375 89.667969 L 243.3125 121.40625 C 243 121.679688 242.957031 122.144531 243.21875 122.457031 C 243.414062 122.6875 243.660156 122.722656 243.796875 122.722656 C 243.914062 122.722656 244.101562 122.695312 244.269531 122.542969 L 281.941406 90.804688 C 282.257812 90.542969 282.300781 90.066406 282.035156 89.753906 C 281.839844 89.523438 281.59375 89.488281 281.46875 89.488281 Z M 243.796875 126.964844 C 242.320312 126.964844 240.929688 126.320312 239.980469 125.191406 C 238.207031 123.085938 238.476562 119.9375 240.582031 118.164062 L 278.253906 86.425781 C 279.152344 85.664062 280.289062 85.246094 281.46875 85.246094 C 282.933594 85.246094 284.328125 85.890625 285.277344 87.019531 C 287.050781 89.125 286.777344 92.28125 284.675781 94.046875 L 247.003906 125.792969 C 246.113281 126.546875 244.964844 126.964844 243.796875 126.964844 " fill-opacity="1" fill-rule="nonzero"/><path fill="#231f1f" d="M 240.054688 121.464844 C 239.808594 120.550781 240.851562 119.472656 242.378906 119.074219 C 243.914062 118.667969 245.347656 119.089844 245.59375 120.015625 L 253.144531 148.691406 C 253.382812 149.617188 252.339844 150.683594 250.8125 151.085938 C 249.285156 151.492188 247.84375 151.074219 247.605469 150.152344 L 240.054688 121.464844 " fill-opacity="1" fill-rule="nonzero"/><path fill="#231f1f" d="M 249.523438 149.117188 C 249.71875 149.132812 250.003906 149.105469 250.269531 149.039062 C 250.589844 148.953125 250.820312 148.835938 250.964844 148.734375 L 243.667969 121.042969 C 243.472656 121.023438 243.183594 121.050781 242.921875 121.117188 C 242.601562 121.203125 242.371094 121.320312 242.234375 121.421875 Z M 249.667969 153.367188 C 247.597656 153.367188 245.976562 152.3125 245.550781 150.695312 L 238.003906 122.007812 C 237.773438 121.160156 237.917969 120.253906 238.382812 119.4375 C 239.046875 118.300781 240.308594 117.417969 241.835938 117.019531 C 242.40625 116.867188 242.972656 116.800781 243.523438 116.800781 C 245.59375 116.800781 247.214844 117.84375 247.640625 119.464844 L 255.195312 148.148438 C 255.75 150.269531 254.101562 152.417969 251.355469 153.136719 C 250.792969 153.289062 250.226562 153.367188 249.667969 153.367188 " fill-opacity="1" fill-rule="nonzero"/><path fill="#ffffff" d="M 159.78125 118.113281 C 200.167969 63.1875 197.820312 52.5 187.84375 37.492188 C 177.867188 22.480469 163.929688 26.507812 162.871094 32.625 C 161.800781 38.738281 143.378906 79.65625 143.378906 79.65625 C 143.378906 79.65625 118.8125 98.132812 117.066406 123.101562 C 115.367188 147.34375 119.25 165.296875 123.273438 180.21875 L 92.746094 208.300781 " fill-opacity="1" fill-rule="nonzero"/><g clip-path="url(#id1)"><path fill="#231f1f" d="M 92.746094 210.421875 C 92.171875 210.421875 91.601562 210.183594 91.1875 209.734375 C 90.390625 208.871094 90.445312 207.527344 91.308594 206.738281 L 120.894531 179.53125 C 116.78125 164.039062 113.308594 146.410156 114.949219 122.960938 C 116.632812 98.890625 138.175781 81.039062 141.664062 78.296875 C 146.914062 66.625 159.953125 36.992188 160.785156 32.261719 C 161.359375 28.933594 164.464844 26.207031 168.707031 25.320312 C 174.464844 24.101562 183 26.359375 189.609375 36.316406 C 200.730469 53.050781 201.296875 65.242188 161.488281 119.371094 C 160.800781 120.3125 159.46875 120.515625 158.527344 119.820312 C 157.585938 119.132812 157.375 117.800781 158.070312 116.859375 C 198.210938 62.273438 195.285156 52.507812 186.078125 38.667969 C 180.640625 30.472656 173.992188 28.542969 169.570312 29.472656 C 167.128906 29.984375 165.230469 31.429688 164.957031 32.988281 C 163.878906 39.1875 147.210938 76.3125 145.320312 80.519531 C 145.167969 80.851562 144.9375 81.132812 144.660156 81.34375 C 144.421875 81.523438 120.835938 99.566406 119.179688 123.257812 C 117.535156 146.714844 121.160156 164.234375 125.324219 179.667969 C 125.53125 180.429688 125.292969 181.246094 124.714844 181.78125 L 94.179688 209.863281 C 93.773438 210.234375 93.257812 210.421875 92.746094 210.421875 " fill-opacity="1" fill-rule="nonzero"/></g><path fill="#ffffff" d="M 322.632812 87.578125 C 322.632812 87.578125 311.699219 94.257812 318.539062 111.410156 C 318.539062 111.410156 322.898438 118.921875 334.410156 120.667969 C 345.917969 122.40625 357.871094 83.933594 322.632812 87.578125 " fill-opacity="1" fill-rule="nonzero"/><path fill="#231f1f" d="M 335.171875 122.847656 C 334 122.847656 333.050781 121.890625 333.050781 120.726562 C 333.050781 119.546875 334 118.605469 335.171875 118.605469 C 338.996094 118.605469 343.925781 111.207031 343.933594 103.359375 C 343.933594 100.628906 343.316406 96.761719 340.371094 93.789062 C 337.511719 90.914062 333.058594 89.453125 327.140625 89.453125 C 325.960938 89.453125 325.019531 88.503906 325.019531 87.335938 C 325.019531 86.164062 325.960938 85.214844 327.140625 85.214844 C 334.230469 85.214844 339.703125 87.097656 343.382812 90.804688 C 346.511719 93.96875 348.175781 98.304688 348.175781 103.359375 C 348.167969 112.371094 342.492188 122.847656 335.171875 122.847656 " fill-opacity="1" fill-rule="nonzero"/><path fill="#ffffff" d="M 330.007812 120.734375 C 330.007812 120.734375 312.089844 121.347656 301.683594 141.15625 C 301.683594 141.15625 298.507812 150.550781 308.484375 158.21875 C 318.460938 165.898438 369.644531 135.734375 330.007812 120.734375 " fill-opacity="1" fill-rule="nonzero"/><path fill="#231f1f" d="M 303.648438 141.964844 C 303.34375 143.066406 301.707031 150.328125 309.773438 156.539062 C 310.453125 157.058594 311.597656 157.328125 313.089844 157.328125 C 322.320312 157.328125 340.726562 147.003906 342.585938 136.832031 C 343.839844 129.96875 336.359375 125.480469 329.683594 122.882812 C 327.046875 123.101562 312.609375 125.089844 303.648438 141.964844 Z M 313.089844 161.570312 C 310.613281 161.570312 308.628906 161.011719 307.1875 159.898438 C 296.144531 151.40625 299.519531 140.921875 299.671875 140.480469 C 299.707031 140.367188 299.75 140.265625 299.800781 140.164062 C 310.664062 119.507812 329.148438 118.648438 329.9375 118.613281 C 330.210938 118.605469 330.488281 118.65625 330.761719 118.75 C 345.785156 124.433594 347.753906 132.140625 346.75 137.601562 C 344.496094 149.964844 324.109375 161.570312 313.089844 161.570312 " fill-opacity="1" fill-rule="nonzero"/><path fill="#ffffff" d="M 325.253906 156.972656 C 325.253906 156.972656 308.15625 151.617188 291.773438 166.855469 C 291.773438 166.855469 285.675781 174.671875 292.546875 185.214844 C 299.417969 195.761719 357.703125 184.25 325.253906 156.972656 " fill-opacity="1" fill-rule="nonzero"/><path fill="#231f1f" d="M 293.359375 168.28125 C 292.707031 169.214844 288.761719 175.527344 294.328125 184.0625 C 295.191406 185.402344 298.507812 186.972656 304.957031 186.972656 L 304.964844 186.972656 C 316.070312 186.972656 329.726562 182.390625 332.421875 174.992188 C 334.503906 169.292969 329.21875 163.148438 324.246094 158.898438 C 323.371094 158.675781 321.015625 158.183594 317.773438 158.183594 C 311.625 158.183594 302.402344 159.941406 293.359375 168.28125 Z M 304.964844 191.214844 L 304.957031 191.214844 C 300.835938 191.214844 293.503906 190.585938 290.765625 186.378906 C 283.15625 174.695312 289.816406 165.921875 290.101562 165.558594 C 290.171875 165.464844 290.246094 165.386719 290.324219 165.3125 C 307.46875 149.363281 325.578125 154.851562 325.890625 154.953125 C 326.164062 155.039062 326.410156 155.171875 326.621094 155.351562 C 335.503906 162.808594 338.792969 169.910156 336.410156 176.441406 C 332.914062 186.039062 317.597656 191.214844 304.964844 191.214844 " fill-opacity="1" fill-rule="nonzero"/><path fill="#ffffff" d="M 293.460938 205.078125 C 291.179688 206.554688 248.65625 252.070312 194.792969 245.003906 L 168.222656 270.296875 " fill-opacity="1" fill-rule="nonzero"/><g clip-path="url(#id2)"><path fill="#231f1f" d="M 168.222656 272.417969 C 167.664062 272.417969 167.105469 272.195312 166.6875 271.753906 C 165.882812 270.90625 165.917969 269.566406 166.765625 268.757812 L 193.324219 243.46875 C 193.789062 243.027344 194.425781 242.816406 195.0625 242.898438 C 226.269531 246.996094 259.199219 233.914062 290.28125 205.078125 C 291.546875 203.90625 291.960938 203.523438 292.316406 203.296875 C 293.300781 202.660156 294.617188 202.949219 295.253906 203.933594 C 295.871094 204.898438 295.609375 206.1875 294.660156 206.832031 C 294.464844 206.984375 293.800781 207.597656 293.164062 208.191406 C 265.003906 234.320312 235.238281 247.878906 206.363281 247.878906 C 202.730469 247.878906 199.117188 247.667969 195.519531 247.234375 L 169.691406 271.832031 C 169.273438 272.222656 168.75 272.417969 168.222656 272.417969 " fill-opacity="1" fill-rule="nonzero"/></g><path fill="#ffffff" d="M 317.035156 189.773438 C 317.035156 189.773438 298.339844 186.308594 280.09375 197.253906 C 280.09375 197.253906 273.265625 202.820312 280.636719 210.082031 C 288 217.335938 352.195312 208.300781 317.035156 189.773438 " fill-opacity="1" fill-rule="nonzero"/><path fill="#231f1f" d="M 281.347656 198.976562 C 280.96875 199.332031 279.421875 200.902344 279.339844 203.050781 C 279.269531 204.824219 280.203125 206.679688 282.121094 208.5625 C 282.832031 209.269531 285.964844 210.464844 293.148438 210.464844 L 293.15625 210.464844 C 308.171875 210.464844 324.09375 205.6875 325.296875 200.816406 C 325.882812 198.441406 322.625 195.167969 316.347656 191.808594 C 315.535156 191.6875 313.132812 191.375 309.722656 191.375 C 302.597656 191.375 291.902344 192.699219 281.347656 198.976562 Z M 293.15625 214.707031 L 293.148438 214.707031 C 288.203125 214.707031 281.757812 214.164062 279.144531 211.59375 C 276.320312 208.800781 274.960938 205.847656 275.105469 202.8125 C 275.308594 198.46875 278.609375 195.726562 278.753906 195.609375 C 278.828125 195.550781 278.914062 195.488281 279 195.429688 C 290.441406 188.574219 302.023438 187.132812 309.722656 187.132812 C 314.363281 187.132812 317.300781 187.667969 317.417969 187.691406 C 317.628906 187.726562 317.832031 187.796875 318.019531 187.898438 C 326.851562 192.554688 330.582031 197.109375 329.414062 201.835938 C 327.011719 211.558594 303.945312 214.707031 293.15625 214.707031 " fill-opacity="1" fill-rule="nonzero"/><g fill="#231f20" fill-opacity="1"><g transform="translate(18.128044, 278.233048)"><g><path d="M 49.75 -22.40625 C 49.75 -19.207031 49.128906 -16.1875 47.890625 -13.34375 C 46.648438 -10.507812 44.972656 -8.054688 42.859375 -5.984375 C 40.753906 -3.910156 38.25 -2.273438 35.34375 -1.078125 C 32.4375 0.109375 29.320312 0.703125 26 0.703125 C 22.707031 0.703125 19.609375 0.109375 16.703125 -1.078125 C 13.804688 -2.273438 11.300781 -3.910156 9.1875 -5.984375 C 7.070312 -8.054688 5.394531 -10.507812 4.15625 -13.34375 C 2.925781 -16.1875 2.3125 -19.207031 2.3125 -22.40625 C 2.3125 -25.613281 2.925781 -28.632812 4.15625 -31.46875 C 5.394531 -34.3125 7.070312 -36.765625 9.1875 -38.828125 C 11.300781 -40.898438 13.804688 -42.535156 16.703125 -43.734375 C 19.609375 -44.929688 22.707031 -45.53125 26 -45.53125 C 29.320312 -45.53125 32.4375 -44.929688 35.34375 -43.734375 C 38.25 -42.535156 40.753906 -40.898438 42.859375 -38.828125 C 44.972656 -36.765625 46.648438 -34.3125 47.890625 -31.46875 C 49.128906 -28.632812 49.75 -25.613281 49.75 -22.40625 Z M 40.21875 -22.40625 C 40.21875 -24.5 39.851562 -26.429688 39.125 -28.203125 C 38.394531 -29.972656 37.398438 -31.507812 36.140625 -32.8125 C 34.878906 -34.113281 33.375 -35.140625 31.625 -35.890625 C 29.875 -36.640625 28 -37.015625 26 -37.015625 C 23.988281 -37.015625 22.117188 -36.640625 20.390625 -35.890625 C 18.660156 -35.140625 17.164062 -34.113281 15.90625 -32.8125 C 14.644531 -31.507812 13.648438 -29.972656 12.921875 -28.203125 C 12.203125 -26.429688 11.84375 -24.5 11.84375 -22.40625 C 11.84375 -20.363281 12.203125 -18.441406 12.921875 -16.640625 C 13.648438 -14.847656 14.644531 -13.300781 15.90625 -12 C 17.164062 -10.695312 18.660156 -9.671875 20.390625 -8.921875 C 22.117188 -8.179688 23.988281 -7.8125 26 -7.8125 C 28 -7.8125 29.875 -8.179688 31.625 -8.921875 C 33.375 -9.671875 34.878906 -10.695312 36.140625 -12 C 37.398438 -13.300781 38.394531 -14.847656 39.125 -16.640625 C 39.851562 -18.441406 40.21875 -20.363281 40.21875 -22.40625 Z M 40.21875 -22.40625 "/></g></g></g><g fill="#231f20" fill-opacity="1"><g transform="translate(70.185, 278.233048)"><g><path d="M 4.03125 -44.828125 L 12.875 -44.828125 L 35.15625 -15.8125 L 35.15625 -44.828125 L 43.859375 -44.828125 L 43.859375 0 L 35.671875 0 L 12.8125 -29.96875 L 12.8125 0 L 4.03125 0 Z M 4.03125 -44.828125 "/></g></g></g><g fill="#231f20" fill-opacity="1"><g transform="translate(118.142205, 278.233048)"><g/></g></g><g fill="#231f20" fill-opacity="1"><g transform="translate(18.128044, 329.666606)"><g><path d="M 1.15625 -36.625 L 1.15625 -44.828125 L 40.59375 -44.828125 L 40.59375 -36.625 L 25.546875 -36.625 L 25.546875 0 L 16.265625 0 L 16.265625 -36.625 Z M 1.15625 -36.625 "/></g></g></g><g fill="#231f20" fill-opacity="1"><g transform="translate(59.876057, 329.666606)"><g><path d="M 4.03125 0 L 4.03125 -44.828125 L 13.3125 -44.828125 L 13.3125 0 Z M 4.03125 0 "/></g></g></g><g fill="#231f20" fill-opacity="1"><g transform="translate(77.29241, 329.666606)"><g><path d="M 28.109375 -3.203125 L 12.609375 -32.96875 L 12.609375 0 L 4.03125 0 L 4.03125 -44.828125 L 15.9375 -44.828125 L 28.234375 -20.75 L 40.53125 -44.828125 L 52.4375 -44.828125 L 52.4375 0 L 43.671875 0 L 43.671875 -32.90625 Z M 28.109375 -3.203125 "/></g></g></g><g fill="#231f20" fill-opacity="1"><g transform="translate(133.767476, 329.666606)"><g><path d="M 4.03125 0 L 4.03125 -44.828125 L 38.484375 -44.828125 L 38.484375 -36.75 L 13.3125 -36.75 L 13.3125 -26.515625 L 29.90625 -26.515625 L 29.90625 -18.703125 L 13.3125 -18.703125 L 13.3125 -8.0625 L 38.734375 -8.0625 L 38.734375 0 Z M 4.03125 0 "/></g></g></g><g fill="#231f20" fill-opacity="1"><g transform="translate(18.128044, 359.240903)"><g><path d="M -0.09375 0 L 6.5625 -16.171875 L 10.453125 -16.171875 L 17.015625 0 L 13.375 0 L 11.734375 -4.25 L 5.0625 -4.25 L 3.390625 0 Z M 6.09375 -6.9375 L 10.71875 -6.9375 L 8.4375 -12.890625 Z M 6.09375 -6.9375 "/></g></g></g><g fill="#231f20" fill-opacity="1"><g transform="translate(35.040762, 359.240903)"><g><path d="M 0.421875 -13.21875 L 0.421875 -16.171875 L 14.65625 -16.171875 L 14.65625 -13.21875 L 9.21875 -13.21875 L 9.21875 0 L 5.875 0 L 5.875 -13.21875 Z M 0.421875 -13.21875 "/></g></g></g><g fill="#231f20" fill-opacity="1"><g transform="translate(50.105086, 359.240903)"><g><path d="M 0.421875 -13.21875 L 0.421875 -16.171875 L 14.65625 -16.171875 L 14.65625 -13.21875 L 9.21875 -13.21875 L 9.21875 0 L 5.875 0 L 5.875 -13.21875 Z M 0.421875 -13.21875 "/></g></g></g><g fill="#231f20" fill-opacity="1"><g transform="translate(65.169411, 359.240903)"><g><path d="M 1.453125 0 L 1.453125 -16.171875 L 13.890625 -16.171875 L 13.890625 -13.265625 L 4.8125 -13.265625 L 4.8125 -9.5625 L 10.796875 -9.5625 L 10.796875 -6.75 L 4.8125 -6.75 L 4.8125 -2.90625 L 13.984375 -2.90625 L 13.984375 0 Z M 1.453125 0 "/></g></g></g><g fill="#231f20" fill-opacity="1"><g transform="translate(80.072005, 359.240903)"><g><path d="M 1.453125 -16.171875 L 4.640625 -16.171875 L 12.6875 -5.703125 L 12.6875 -16.171875 L 15.828125 -16.171875 L 15.828125 0 L 12.875 0 L 4.625 -10.8125 L 4.625 0 L 1.453125 0 Z M 1.453125 -16.171875 "/></g></g></g><g fill="#231f20" fill-opacity="1"><g transform="translate(97.377503, 359.240903)"><g><path d="M 1.453125 0 L 1.453125 -16.171875 L 7.671875 -16.171875 C 8.867188 -16.171875 9.992188 -15.960938 11.046875 -15.546875 C 12.097656 -15.128906 13.003906 -14.554688 13.765625 -13.828125 C 14.523438 -13.109375 15.125 -12.25 15.5625 -11.25 C 16 -10.25 16.21875 -9.179688 16.21875 -8.046875 C 16.21875 -6.921875 16 -5.863281 15.5625 -4.875 C 15.125 -3.882812 14.523438 -3.03125 13.765625 -2.3125 C 13.003906 -1.601562 12.097656 -1.039062 11.046875 -0.625 C 9.992188 -0.207031 8.867188 0 7.671875 0 Z M 7.65625 -13.203125 L 4.8125 -13.203125 L 4.8125 -2.984375 L 7.65625 -2.984375 C 8.363281 -2.984375 9.023438 -3.113281 9.640625 -3.375 C 10.265625 -3.632812 10.804688 -3.988281 11.265625 -4.4375 C 11.734375 -4.894531 12.097656 -5.429688 12.359375 -6.046875 C 12.617188 -6.671875 12.75 -7.335938 12.75 -8.046875 C 12.75 -8.765625 12.617188 -9.4375 12.359375 -10.0625 C 12.097656 -10.695312 11.734375 -11.242188 11.265625 -11.703125 C 10.804688 -12.171875 10.265625 -12.535156 9.640625 -12.796875 C 9.023438 -13.066406 8.363281 -13.203125 7.65625 -13.203125 Z M 7.65625 -13.203125 "/></g></g></g><g fill="#231f20" fill-opacity="1"><g transform="translate(114.428839, 359.240903)"><g><path d="M -0.09375 0 L 6.5625 -16.171875 L 10.453125 -16.171875 L 17.015625 0 L 13.375 0 L 11.734375 -4.25 L 5.0625 -4.25 L 3.390625 0 Z M 6.09375 -6.9375 L 10.71875 -6.9375 L 8.4375 -12.890625 Z M 6.09375 -6.9375 "/></g></g></g><g fill="#231f20" fill-opacity="1"><g transform="translate(131.341557, 359.240903)"><g><path d="M 1.453125 -16.171875 L 4.640625 -16.171875 L 12.6875 -5.703125 L 12.6875 -16.171875 L 15.828125 -16.171875 L 15.828125 0 L 12.875 0 L 4.625 -10.8125 L 4.625 0 L 1.453125 0 Z M 1.453125 -16.171875 "/></g></g></g><g fill="#231f20" fill-opacity="1"><g transform="translate(148.647055, 359.240903)"><g><path d="M 9.546875 -2.859375 C 10.390625 -2.859375 11.179688 -3.035156 11.921875 -3.390625 C 12.660156 -3.742188 13.316406 -4.253906 13.890625 -4.921875 L 16.078125 -2.75 C 15.304688 -1.84375 14.320312 -1.117188 13.125 -0.578125 C 11.9375 -0.0351562 10.710938 0.234375 9.453125 0.234375 C 8.234375 0.234375 7.09375 0.0195312 6.03125 -0.40625 C 4.976562 -0.84375 4.066406 -1.429688 3.296875 -2.171875 C 2.535156 -2.910156 1.929688 -3.785156 1.484375 -4.796875 C 1.046875 -5.816406 0.828125 -6.914062 0.828125 -8.09375 C 0.828125 -9.257812 1.050781 -10.351562 1.5 -11.375 C 1.945312 -12.40625 2.554688 -13.289062 3.328125 -14.03125 C 4.097656 -14.769531 5.007812 -15.351562 6.0625 -15.78125 C 7.125 -16.21875 8.253906 -16.4375 9.453125 -16.4375 C 10.742188 -16.4375 12 -16.160156 13.21875 -15.609375 C 14.4375 -15.066406 15.421875 -14.332031 16.171875 -13.40625 L 13.90625 -11.15625 C 13.34375 -11.863281 12.675781 -12.40625 11.90625 -12.78125 C 11.132812 -13.164062 10.316406 -13.359375 9.453125 -13.359375 C 8.722656 -13.359375 8.039062 -13.222656 7.40625 -12.953125 C 6.769531 -12.679688 6.21875 -12.3125 5.75 -11.84375 C 5.289062 -11.375 4.929688 -10.816406 4.671875 -10.171875 C 4.410156 -9.535156 4.28125 -8.84375 4.28125 -8.09375 C 4.28125 -7.351562 4.410156 -6.660156 4.671875 -6.015625 C 4.941406 -5.378906 5.3125 -4.828125 5.78125 -4.359375 C 6.257812 -3.898438 6.816406 -3.535156 7.453125 -3.265625 C 8.085938 -2.992188 8.785156 -2.859375 9.546875 -2.859375 Z M 9.546875 -2.859375 "/></g></g></g><g fill="#231f20" fill-opacity="1"><g transform="translate(165.236293, 359.240903)"><g><path d="M 1.453125 0 L 1.453125 -16.171875 L 13.890625 -16.171875 L 13.890625 -13.265625 L 4.8125 -13.265625 L 4.8125 -9.5625 L 10.796875 -9.5625 L 10.796875 -6.75 L 4.8125 -6.75 L 4.8125 -2.90625 L 13.984375 -2.90625 L 13.984375 0 Z M 1.453125 0 "/></g></g></g><g fill="#231f20" fill-opacity="1"><g transform="translate(180.138887, 359.240903)"><g/></g></g><g fill="#231f20" fill-opacity="1"><g transform="translate(184.782944, 359.240903)"><g><path d="M 10.140625 -1.15625 L 4.546875 -11.90625 L 4.546875 0 L 1.453125 0 L 1.453125 -16.171875 L 5.75 -16.171875 L 10.1875 -7.484375 L 14.625 -16.171875 L 18.921875 -16.171875 L 18.921875 0 L 15.765625 0 L 15.765625 -11.875 Z M 10.140625 -1.15625 "/></g></g></g><g fill="#231f20" fill-opacity="1"><g transform="translate(205.161381, 359.240903)"><g><path d="M -0.09375 0 L 6.5625 -16.171875 L 10.453125 -16.171875 L 17.015625 0 L 13.375 0 L 11.734375 -4.25 L 5.0625 -4.25 L 3.390625 0 Z M 6.09375 -6.9375 L 10.71875 -6.9375 L 8.4375 -12.890625 Z M 6.09375 -6.9375 "/></g></g></g><g fill="#231f20" fill-opacity="1"><g transform="translate(222.074099, 359.240903)"><g><path d="M 1.453125 -16.171875 L 4.640625 -16.171875 L 12.6875 -5.703125 L 12.6875 -16.171875 L 15.828125 -16.171875 L 15.828125 0 L 12.875 0 L 4.625 -10.8125 L 4.625 0 L 1.453125 0 Z M 1.453125 -16.171875 "/></g></g></g><g fill="#231f20" fill-opacity="1"><g transform="translate(239.379597, 359.240903)"><g><path d="M -0.09375 0 L 6.5625 -16.171875 L 10.453125 -16.171875 L 17.015625 0 L 13.375 0 L 11.734375 -4.25 L 5.0625 -4.25 L 3.390625 0 Z M 6.09375 -6.9375 L 10.71875 -6.9375 L 8.4375 -12.890625 Z M 6.09375 -6.9375 "/></g></g></g><g fill="#231f20" fill-opacity="1"><g transform="translate(256.292315, 359.240903)"><g><path d="M 17.515625 -8.0625 C 17.515625 -6.875 17.3125 -5.769531 16.90625 -4.75 C 16.5 -3.726562 15.9375 -2.847656 15.21875 -2.109375 C 14.5 -1.378906 13.640625 -0.800781 12.640625 -0.375 C 11.640625 0.0390625 10.5625 0.25 9.40625 0.25 C 8.207031 0.25 7.082031 0.0351562 6.03125 -0.390625 C 4.976562 -0.828125 4.070312 -1.414062 3.3125 -2.15625 C 2.550781 -2.90625 1.945312 -3.785156 1.5 -4.796875 C 1.050781 -5.816406 0.828125 -6.914062 0.828125 -8.09375 C 0.828125 -9.257812 1.046875 -10.347656 1.484375 -11.359375 C 1.929688 -12.378906 2.535156 -13.265625 3.296875 -14.015625 C 4.054688 -14.765625 4.957031 -15.351562 6 -15.78125 C 7.050781 -16.21875 8.171875 -16.4375 9.359375 -16.4375 C 10.703125 -16.4375 11.960938 -16.164062 13.140625 -15.625 C 14.328125 -15.082031 15.304688 -14.34375 16.078125 -13.40625 L 13.75 -11.25 C 13.175781 -11.925781 12.515625 -12.445312 11.765625 -12.8125 C 11.023438 -13.175781 10.222656 -13.359375 9.359375 -13.359375 C 8.628906 -13.359375 7.953125 -13.222656 7.328125 -12.953125 C 6.710938 -12.679688 6.175781 -12.3125 5.71875 -11.84375 C 5.257812 -11.375 4.90625 -10.816406 4.65625 -10.171875 C 4.40625 -9.535156 4.28125 -8.84375 4.28125 -8.09375 C 4.28125 -7.332031 4.410156 -6.628906 4.671875 -5.984375 C 4.929688 -5.335938 5.289062 -4.78125 5.75 -4.3125 C 6.21875 -3.84375 6.769531 -3.472656 7.40625 -3.203125 C 8.039062 -2.929688 8.722656 -2.796875 9.453125 -2.796875 C 10.585938 -2.796875 11.566406 -3.109375 12.390625 -3.734375 C 13.222656 -4.367188 13.738281 -5.179688 13.9375 -6.171875 L 9.15625 -6.171875 L 9.15625 -9.078125 L 17.515625 -9.078125 Z M 17.515625 -8.0625 "/></g></g></g><g fill="#231f20" fill-opacity="1"><g transform="translate(274.637515, 359.240903)"><g><path d="M 1.453125 0 L 1.453125 -16.171875 L 13.890625 -16.171875 L 13.890625 -13.265625 L 4.8125 -13.265625 L 4.8125 -9.5625 L 10.796875 -9.5625 L 10.796875 -6.75 L 4.8125 -6.75 L 4.8125 -2.90625 L 13.984375 -2.90625 L 13.984375 0 Z M 1.453125 0 "/></g></g></g><g fill="#231f20" fill-opacity="1"><g transform="translate(289.540109, 359.240903)"><g><path d="M 10.140625 -1.15625 L 4.546875 -11.90625 L 4.546875 0 L 1.453125 0 L 1.453125 -16.171875 L 5.75 -16.171875 L 10.1875 -7.484375 L 14.625 -16.171875 L 18.921875 -16.171875 L 18.921875 0 L 15.765625 0 L 15.765625 -11.875 Z M 10.140625 -1.15625 "/></g></g></g><g fill="#231f20" fill-opacity="1"><g transform="translate(309.918545, 359.240903)"><g><path d="M 1.453125 0 L 1.453125 -16.171875 L 13.890625 -16.171875 L 13.890625 -13.265625 L 4.8125 -13.265625 L 4.8125 -9.5625 L 10.796875 -9.5625 L 10.796875 -6.75 L 4.8125 -6.75 L 4.8125 -2.90625 L 13.984375 -2.90625 L 13.984375 0 Z M 1.453125 0 "/></g></g></g><g fill="#231f20" fill-opacity="1"><g transform="translate(324.82114, 359.240903)"><g><path d="M 1.453125 -16.171875 L 4.640625 -16.171875 L 12.6875 -5.703125 L 12.6875 -16.171875 L 15.828125 -16.171875 L 15.828125 0 L 12.875 0 L 4.625 -10.8125 L 4.625 0 L 1.453125 0 Z M 1.453125 -16.171875 "/></g></g></g><g fill="#231f20" fill-opacity="1"><g transform="translate(342.126637, 359.240903)"><g><path d="M 0.421875 -13.21875 L 0.421875 -16.171875 L 14.65625 -16.171875 L 14.65625 -13.21875 L 9.21875 -13.21875 L 9.21875 0 L 5.875 0 L 5.875 -13.21875 Z M 0.421875 -13.21875 "/></g></g></g></svg>